REM DIRINDEX 1\2,1\3,1\4,1\5
REM DIRNAME cjc004,folder01,folder02,folder03,folder04
TITLE ""
FILE "1Q_t_0800-0809.mp3" MP3
  TRACK 01 AUDIO
    TITLE "3:cjc004_3303"
    INDEX 01 00:00:00
  TRACK 02 AUDIO
    TITLE "0:"
    INDEX 01 00:01:13
  TRACK 03 AUDIO
    TITLE "4:cjc004_3304"
    INDEX 01 00:01:28
  TRACK 04 AUDIO
    TITLE "0:"
    INDEX 01 00:02:53
  TRACK 05 AUDIO
    TITLE "5:cjc004_3305"
    INDEX 01 00:03:08
  TRACK 06 AUDIO
    TITLE "0:"
    INDEX 01 00:06:69
  TRACK 07 AUDIO
    TITLE "3:cjc004_3306"
    INDEX 01 00:07:54
  TRACK 08 AUDIO
    TITLE "0:"
    INDEX 01 00:08:56
  TRACK 09 AUDIO
    TITLE "4:cjc004_3307"
    INDEX 01 00:08:66
  TRACK 10 AUDIO
    TITLE "0:"
    INDEX 01 00:10:12
  TRACK 11 AUDIO
    TITLE "5:cjc004_3308"
    INDEX 01 00:10:43
  TRACK 12 AUDIO
    TITLE "0:"
    INDEX 01 00:16:30
  TRACK 13 AUDIO
    TITLE "3:cjc004_3309"
    INDEX 01 00:17:12
  TRACK 14 AUDIO
    TITLE "0:"
    INDEX 01 00:18:09
  TRACK 15 AUDIO
    TITLE "4:cjc004_3310"
    INDEX 01 00:18:41
  TRACK 16 AUDIO
    TITLE "0:"
    INDEX 01 00:19:60
  TRACK 17 AUDIO
    TITLE "5:cjc004_3311"
    INDEX 01 00:20:12
  TRACK 18 AUDIO
    TITLE "0:"
    INDEX 01 00:24:31
  TRACK 19 AUDIO
    TITLE "3:cjc004_3312"
    INDEX 01 00:25:07
  TRACK 20 AUDIO
    TITLE "0:"
    INDEX 01 00:26:34
  TRACK 21 AUDIO
    TITLE "4:cjc004_3313"
    INDEX 01 00:26:62
  TRACK 22 AUDIO
    TITLE "0:"
    INDEX 01 00:27:61
  TRACK 23 AUDIO
    TITLE "5:cjc004_3314"
    INDEX 01 00:28:12
  TRACK 24 AUDIO
    TITLE "0:"
    INDEX 01 00:32:68
  TRACK 25 AUDIO
    TITLE "3:cjc004_3315"
    INDEX 01 00:33:48
  TRACK 26 AUDIO
    TITLE "0:"
    INDEX 01 00:35:10
  TRACK 27 AUDIO
    TITLE "4:cjc004_3316"
    INDEX 01 00:35:37
  TRACK 28 AUDIO
    TITLE "0:"
    INDEX 01 00:36:56
  TRACK 29 AUDIO
    TITLE "5:cjc004_3317"
    INDEX 01 00:37:05
  TRACK 30 AUDIO
    TITLE "0:"
    INDEX 01 00:41:28
  TRACK 31 AUDIO
    TITLE "3:cjc004_3318"
    INDEX 01 00:42:06
  TRACK 32 AUDIO
    TITLE "0:"
    INDEX 01 00:43:15
  TRACK 33 AUDIO
    TITLE "4:cjc004_3319"
    INDEX 01 00:43:44
  TRACK 34 AUDIO
    TITLE "0:"
    INDEX 01 00:44:67
  TRACK 35 AUDIO
    TITLE "5:cjc004_3320"
    INDEX 01 00:45:18
  TRACK 36 AUDIO
    TITLE "0:"
    INDEX 01 00:49:04
  TRACK 37 AUDIO
    TITLE "3:cjc004_3321"
    INDEX 01 00:49:57
  TRACK 38 AUDIO
    TITLE "0:"
    INDEX 01 00:50:74
  TRACK 39 AUDIO
    TITLE "4:cjc004_3322"
    INDEX 01 00:51:28
  TRACK 40 AUDIO
    TITLE "0:"
    INDEX 01 00:52:43
  TRACK 41 AUDIO
    TITLE "5:cjc004_3323"
    INDEX 01 00:52:71
  TRACK 42 AUDIO
    TITLE "0:"
    INDEX 01 00:57:27
  TRACK 43 AUDIO
    TITLE "3:cjc004_3324"
    INDEX 01 00:58:07
  TRACK 44 AUDIO
    TITLE "0:"
    INDEX 01 00:59:14
  TRACK 45 AUDIO
    TITLE "4:cjc004_3325"
    INDEX 01 00:59:45
  TRACK 46 AUDIO
    TITLE "0:"
    INDEX 01 01:01:01
  TRACK 47 AUDIO
    TITLE "5:cjc004_3326"
    INDEX 01 01:01:31
  TRACK 48 AUDIO
    TITLE "0:"
    INDEX 01 01:06:32
  TRACK 49 AUDIO
    TITLE "3:cjc004_3327"
    INDEX 01 01:07:15
  TRACK 50 AUDIO
    TITLE "0:"
    INDEX 01 01:08:36
  TRACK 51 AUDIO
    TITLE "4:cjc004_3328"
    INDEX 01 01:08:70
  TRACK 52 AUDIO
    TITLE "0:"
    INDEX 01 01:10:04
  TRACK 53 AUDIO
    TITLE "5:cjc004_3329"
    INDEX 01 01:10:26
  TRACK 54 AUDIO
    TITLE "0:"
    INDEX 01 01:14:25
  TRACK 55 AUDIO
    TITLE "3:cjc004_3330"
    INDEX 01 01:15:01
  TRACK 56 AUDIO
    TITLE "0:"
    INDEX 01 01:16:11
  TRACK 57 AUDIO
    TITLE "4:cjc004_3331"
    INDEX 01 01:16:46
  TRACK 58 AUDIO
    TITLE "0:"
    INDEX 01 01:18:09
  TRACK 59 AUDIO
    TITLE "5:cjc004_3332"
    INDEX 01 01:18:33
  TRACK 60 AUDIO
    TITLE "0:"
    INDEX 01 01:23:24
